<svg width="35" height="36" viewBox="0 0 35 36" fill="none" xmlns="http://www.w3.org/2000/svg">
<path d="M6.91669 4C7.91669 3 7.16669 0 5.47869 0C3.79069 0 3.91669 2 4.91669 2C5.91669 2 5.91669 4 5.91669 5C5.91669 6 6.91669 4 6.91669 4ZM2.73369 5.72C3.73369 4.72 2.98369 1.72 1.29569 1.72C-0.392306 1.72 -0.266306 3.72 0.733694 3.72C1.73369 3.72 1.73369 5.72 1.73369 6.72C1.73369 7.72 2.73369 5.72 2.73369 5.72Z" fill="#AA8DD8"/>
<path d="M29.1087 32.856C29.2977 33.664 30.3357 35.136 31.1407 34.947C31.9467 34.757 32.2177 32.976 32.0287 32.17C31.8397 31.362 31.0307 30.863 30.2247 31.053C29.4197 31.243 28.9187 32.05 29.1087 32.856V32.856ZM23.6747 33.505C23.6777 34.335 24.3557 36.003 25.1837 36C26.0117 35.996 26.6777 34.323 26.6747 33.494C26.6717 32.665 25.9977 31.997 25.1697 31.999C24.3417 32.003 23.6717 32.676 23.6747 33.505V33.505ZM18.4037 31.059C18.0777 31.823 18.0387 33.622 18.7997 33.949C19.5627 34.273 20.8367 33.002 21.1627 32.239C21.4877 31.477 21.1347 30.596 20.3737 30.269C19.6117 29.944 18.7307 30.296 18.4037 31.059V31.059ZM13.3727 20.019C12.5607 20.191 11.0647 21.192 11.2337 22.002C11.4067 22.812 13.1787 23.126 13.9907 22.955C14.8017 22.784 15.3197 21.988 15.1507 21.178C14.9787 20.368 14.1857 19.848 13.3727 20.019ZM11.3357 15.019C10.5237 15.191 9.02772 16.192 9.19672 17.002C9.36972 17.812 11.1417 18.126 11.9537 17.955C12.7647 17.784 13.2827 16.988 13.1137 16.178C12.9417 15.368 12.1477 14.848 11.3357 15.019V15.019Z" fill="#744EAA"/>
<path d="M26.7457 34C29.5767 34 31.6717 33.123 32.0117 32.973C34.2827 31.963 35.3047 29.304 34.2957 27.034C33.2967 24.784 30.6797 23.759 28.4237 24.72C28.2907 24.77 26.6307 25.369 25.0807 24.648C23.2297 23.787 22.0857 21.339 21.4527 19.439C21.3087 19.009 21.0677 18.165 20.7667 17.123C18.9007 10.652 17.9347 8.83799 16.7837 7.30299C13.0727 2.35199 7.19168 2.00699 4.30068 2.58699C1.86368 3.07399 0.282677 5.44499 0.770677 7.88199C1.25868 10.32 3.63068 11.902 6.06668 11.412C6.22868 11.386 8.27068 11.106 9.49068 12.581C10.1337 13.868 11.5707 17.709 12.1207 19.615C12.4667 20.814 12.7497 21.786 12.9147 22.282C14.6877 27.599 17.5807 31.175 21.5177 32.911C23.3697 33.729 25.1717 34 26.7457 34Z" fill="#9266CC"/>
<path d="M6.18372 6C6.736 6 7.18372 5.55228 7.18372 5C7.18372 4.44772 6.736 4 6.18372 4C5.63143 4 5.18372 4.44772 5.18372 5C5.18372 5.55228 5.63143 6 6.18372 6Z" fill="#202024"/>
<path d="M30.4247 32.964C30.3357 32.964 30.2447 32.952 30.1557 32.928C29.6237 32.78 29.3117 32.229 29.4597 31.697C30.2167 28.975 28.6897 27.155 28.6747 27.137C28.3157 26.718 28.3627 26.086 28.7817 25.727C29.1997 25.368 29.8327 25.415 30.1917 25.834C30.2837 25.941 32.4257 28.494 31.3867 32.231C31.2647 32.674 30.8617 32.964 30.4247 32.964V32.964ZM23.2257 32.401C22.9807 32.401 22.7357 32.312 22.5417 32.131C22.1387 31.753 22.1177 31.12 22.4947 30.717C23.9797 29.13 23.9477 26.524 23.9467 26.497C23.9307 25.945 24.3657 25.485 24.9187 25.469C25.4607 25.464 25.9317 25.888 25.9467 26.441C25.9507 26.58 26.0197 29.878 23.9557 32.085C23.7587 32.295 23.4917 32.401 23.2257 32.401V32.401ZM14.6837 23.705C14.2037 23.705 13.7797 23.358 13.6987 22.868C13.6087 22.324 13.9767 21.808 14.5217 21.719C17.5957 21.209 19.2957 19.342 19.3127 19.323C19.6777 18.913 20.3107 18.874 20.7217 19.239C21.1337 19.604 21.1747 20.232 20.8127 20.645C20.7257 20.744 18.6567 23.06 14.8487 23.691C14.7927 23.701 14.7377 23.705 14.6837 23.705V23.705ZM17.6047 28.562C17.1797 28.562 16.7857 28.29 16.6507 27.864C16.4847 27.338 16.7767 26.775 17.3027 26.609C19.9957 25.756 21.1827 23.779 21.1947 23.759C21.4747 23.282 22.0867 23.122 22.5627 23.402C23.0397 23.681 23.1987 24.295 22.9197 24.77C22.8567 24.878 21.3247 27.433 17.9067 28.514C17.8057 28.547 17.7037 28.562 17.6047 28.562V28.562ZM12.9857 17.892C12.4897 17.892 12.0587 17.523 11.9947 17.017C11.9257 16.469 12.3137 15.969 12.8617 15.899C15.5507 15.559 17.5187 13.928 17.5377 13.911C17.9597 13.557 18.5907 13.608 18.9457 14.03C19.3017 14.451 19.2507 15.08 18.8307 15.437C18.7337 15.52 16.4107 17.466 13.1127 17.883C13.0697 17.889 13.0277 17.892 12.9857 17.892V17.892ZM11.1647 13.125C10.7397 13.125 10.3457 12.852 10.2107 12.424C10.0457 11.897 10.3377 11.336 10.8647 11.17C13.9947 10.187 15.1177 8.47797 15.1637 8.40597C15.4587 7.94397 16.0747 7.80097 16.5387 8.09397C17.0037 8.38597 17.1497 8.99297 16.8627 9.45997C16.8027 9.55697 15.3567 11.856 11.4637 13.079C11.3647 13.11 11.2637 13.125 11.1647 13.125V13.125Z" fill="#744EAA"/>
</svg>
